<?xml version="1.0" standalone="no"?>
<!DOCTYPE svg PUBLIC "-//W3C//DTD SVG 20010904//EN"
 "http://www.w3.org/TR/2001/REC-SVG-20010904/DTD/svg10.dtd">
<svg version="1.0" xmlns="http://www.w3.org/2000/svg"
 width="128.000000pt" height="128.000000pt" viewBox="0 0 128.000000 128.000000"
 preserveAspectRatio="xMidYMid meet">

<g transform="translate(0.000000,128.000000) scale(0.100000,-0.100000)"
fill="#000000" stroke="none">
<path d="M480 1240 l0 -40 160 0 160 0 0 40 0 40 -160 0 -160 0 0 -40z"/>
<path d="M1067 1132 l-27 -28 53 -52 53 -52 27 28 27 28 -53 52 -53 52 -27
-28z"/>
<path d="M555 1110 c-214 -34 -396 -199 -456 -410 -17 -64 -16 -224 4 -286 26
-86 68 -161 124 -223 66 -74 137 -121 233 -156 63 -23 92 -27 175 -28 166 -1
278 46 395 163 77 77 117 142 147 244 21 67 21 225 0 292 -55 181 -188 323
-356 379 -76 26 -193 37 -266 25z m256 -99 c121 -46 232 -156 280 -279 33 -83
33 -261 0 -344 -47 -121 -160 -233 -279 -279 -79 -30 -208 -36 -291 -15 -167
43 -303 177 -346 341 -19 75 -19 175 0 250 42 161 174 294 336 340 76 21 226
14 300 -14z"/>
<path d="M640 761 l0 -201 201 0 200 0 -7 48 c-26 183 -162 319 -346 346 l-48
7 0 -200z"/>
</g>
</svg>
